<svg xmlns="http://www.w3.org/2000/svg" width="1500" height="920" viewBox="0 0 1500 920"><rect width="1500" height="920" fill="#0b1110"/><rect width="245" height="920" fill="#08100d"/><style>text{font-family:Segoe UI,Arial;fill:#f4f7f5}.muted{fill:#98a49e}.green{fill:#35d05b}.box{fill:#121a17;stroke:#31423a;stroke-width:1.5}.btn{fill:#12331d;stroke:#35d05b}.nav{fill:#10251a;stroke:#2f6f43}</style><text x="24" y="58" font-size="30" font-weight="700">EAGLE EYE</text><text x="24" y="86" font-size="15" class="green" font-weight="700">UNIFIED SOC PLATFORM</text><rect x="16" y="122" width="213" height="54" rx="7" class="nav"/><text x="34" y="156" font-size="17" class="green">Command Centre</text><text x="34" y="220" font-size="17">SIEM Detection</text><text x="34" y="272" font-size="17">Active Directory</text><text x="34" y="324" font-size="17">Phishing Analysis</text><text x="34" y="376" font-size="17">Azure Security</text><text x="34" y="428" font-size="17">SOC Automation</text><text x="34" y="480" font-size="17">Settings</text><text x="24" y="820" font-size="13" class="muted">Authorised environments only</text><text x="24" y="842" font-size="13" class="muted">No automated exploitation</text><text x="24" y="864" font-size="13" class="muted">External actions require confirmation</text><text x="275" y="64" font-size="32" font-weight="700">Command Centre</text><text x="275" y="94" font-size="16" class="muted">Unified visibility across authentication, identity, phishing, cloud and automation workflows.</text><g transform="translate(275 122)"><rect width="280" height="105" rx="8" class="box"/><text x="18" y="35" font-size="16" class="muted">Total incidents</text><text x="18" y="79" font-size="36" font-weight="700">0</text></g><g transform="translate(570 122)"><rect width="280" height="105" rx="8" class="box"/><text x="18" y="35" font-size="16" class="muted">Open incidents</text><text x="18" y="79" font-size="36" font-weight="700">0</text></g><g transform="translate(865 122)"><rect width="280" height="105" rx="8" class="box"/><text x="18" y="35" font-size="16" class="muted">High / critical</text><text x="18" y="79" font-size="36" font-weight="700">0</text></g><g transform="translate(1160 122)"><rect width="280" height="105" rx="8" class="box"/><text x="18" y="35" font-size="16" class="muted">Modules represented</text><text x="18" y="79" font-size="36" font-weight="700">0</text></g><rect x="275" y="250" width="110" height="42" rx="6" class="btn"/><text x="305" y="277" font-size="15">Refresh</text><rect x="397" y="250" width="175" height="42" rx="6" class="box"/><text x="416" y="277" font-size="15">Load demo incidents</text><rect x="584" y="250" width="205" height="42" rx="6" class="box"/><text x="604" y="277" font-size="15">Close selected incident</text><text x="275" y="335" font-size="22" font-weight="700">Recent incidents</text><rect x="275" y="354" width="1165" height="470" rx="6" class="box"/><line x1="275" y1="405" x2="1440" y2="405" stroke="#31423a"/><text x="292" y="386" font-size="14">ID</text><text x="410" y="386" font-size="14">Module</text><text x="620" y="386" font-size="14">Severity</text><text x="740" y="386" font-size="14">Status</text><text x="860" y="386" font-size="14">Title</text><text x="1295" y="386" font-size="14">Created</text><text x="275" y="895" font-size="13" class="muted">Ready — local data is stored in the Eagle Eye application directory</text></svg>