<svg xmlns="http://www.w3.org/2000/svg" width="1500" height="920" viewBox="0 0 1500 920"><rect width="1500" height="920" fill="#0b1110"/><rect width="245" height="920" fill="#08100d"/><style>text{font-family:Segoe UI,Arial;fill:#f4f7f5}.muted{fill:#98a49e}.green{fill:#35d05b}.box{fill:#121a17;stroke:#31423a;stroke-width:1.5}.btn{fill:#12331d;stroke:#35d05b}.nav{fill:#10251a;stroke:#2f6f43}</style><text x="24" y="58" font-size="30" font-weight="700">EAGLE EYE</text><text x="24" y="86" font-size="15" class="green" font-weight="700">UNIFIED SOC PLATFORM</text><text x="34" y="156" font-size="17">Command Centre</text><rect x="16" y="178" width="213" height="54" rx="7" class="nav"/><text x="34" y="212" font-size="17" class="green">SIEM Detection</text><text x="34" y="272" font-size="17">Active Directory</text><text x="34" y="324" font-size="17">Phishing Analysis</text><text x="34" y="376" font-size="17">Azure Security</text><text x="34" y="428" font-size="17">SOC Automation</text><text x="34" y="480" font-size="17">Settings</text><text x="275" y="64" font-size="32" font-weight="700">SIEM Detection</text><text x="275" y="94" font-size="16" class="muted">Analyse Windows Security and Wazuh-exported authentication telemetry, detect repeated failures and identify success-after-failure patterns.</text><rect x="275" y="122" width="225" height="42" rx="6" class="btn"/><text x="294" y="149" font-size="15">Import JSON / NDJSON / CSV</text><rect x="512" y="122" width="165" height="42" rx="6" class="box"/><text x="532" y="149" font-size="15">Load demo telemetry</text><rect x="689" y="122" width="145" height="42" rx="6" class="btn"/><text x="708" y="149" font-size="15">Analyse telemetry</text><text x="275" y="194" font-size="14" class="muted">No telemetry loaded</text><rect x="275" y="218" width="1165" height="130" rx="7" class="box"/><text x="295" y="248" font-size="17" font-weight="700">Detection parameters</text><text x="300" y="291" font-size="15">Event threshold</text><rect x="450" y="268" width="100" height="38" rx="4" class="box"/><text x="492" y="293" font-size="15">3</text><text x="600" y="291" font-size="15">Window (seconds)</text><rect x="750" y="268" width="100" height="38" rx="4" class="box"/><text x="785" y="293" font-size="15">120</text><rect x="275" y="365" width="1165" height="125" rx="7" class="box"/><text x="295" y="395" font-size="17" font-weight="700">Authentication visualisation</text><text x="300" y="435" font-size="15">Event ID 4624</text><rect x="430" y="416" width="940" height="24" rx="4" fill="#1a2822"/><text x="445" y="434" font-size="13">Successful logons: 0</text><text x="300" y="470" font-size="15">Event ID 4625</text><rect x="430" y="451" width="940" height="24" rx="4" fill="#1a2822"/><text x="445" y="469" font-size="13">Failed logons: 0</text><text x="275" y="525" font-size="14" class="muted">Run an analysis to view the result summary.</text><rect x="275" y="548" width="1165" height="240" rx="7" class="box"/><text x="295" y="580" font-size="14">Severity</text><text x="430" y="580" font-size="14">Finding</text><text x="970" y="580" font-size="14">Evidence</text><rect x="275" y="808" width="265" height="42" rx="6" class="btn"/><text x="293" y="835" font-size="15">Create incident from selected finding</text><rect x="552" y="808" width="185" height="42" rx="6" class="box"/><text x="573" y="835" font-size="15">Export analysis JSON</text></svg>